<svg version="1.1" viewBox="0.0 0.0 512.0 512.0" fill="none" stroke="none" stroke-linecap="square" stroke-miterlimit="10" xmlns:xlink="http://www.w3.org/1999/xlink" xmlns="http://www.w3.org/2000/svg"><clipPath id="p.0"><path d="m0 0l512.0 0l0 512.0l-512.0 0l0 -512.0z" clip-rule="nonzero"/></clipPath><g clip-path="url(#p.0)"><path fill="#000000" fill-opacity="0.0" d="m0 0l512.0 0l0 512.0l-512.0 0z" fill-rule="evenodd"/><path fill="#6c5ce7" d="m0.3191601 85.23005l0 0c0 -47.071255 38.158794 -85.23005 85.23005 -85.23005l340.90997 0l0 0c22.6044 0 44.28299 8.9795685 60.266724 24.963305c15.983734 15.983736 24.963318 37.66233 24.963318 60.266747l0 341.53992c0 47.07126 -38.158783 85.23004 -85.23004 85.23004l-340.90997 0c-47.071255 0 -85.23005 -38.158783 -85.23005 -85.23004z" fill-rule="evenodd"/><path fill="#000000" fill-opacity="0.0" d="m0.32020998 29.5958l511.37006 0l0 58.173225l-511.37006 0z" fill-rule="evenodd"/><path fill="#ffffff" d="m197.75853 366.2614l134.06252 0l-68.046875 -187.15625l-77.812515 213.89062l-28.484375 0l106.29689 -292.1875l106.296875 292.1875l-172.31252 0l0 -26.734375z" fill-rule="nonzero"/></g></svg>